<?xml version="1.0" encoding="utf-8"?>
<!-- Generator: Adobe Illustrator 22.0.1, SVG Export Plug-In . SVG Version: 6.00 Build 0)  -->
<svg version="1.1" id="design" xmlns="http://www.w3.org/2000/svg" xmlns:xlink="http://www.w3.org/1999/xlink" x="0px" y="0px"
	 viewBox="0 0 36.3 51.1" style="enable-background:new 0 0 36.3 51.1;" xml:space="preserve">
<style type="text/css">
	.st0{fill:#E44D26;}
	.st1{fill:#F16529;}
	.st2{fill:#EBEBEB;}
	.st3{fill:#FFFFFF;}
	.st4{fill:#264DE4;}
	.st5{fill:#2965F1;}
	.st6{fill:#DAB92D;}
	.st7{fill:#FFD839;}
	.st8{fill:#53C1DE;}
	.st9{fill:#002A41;}
	.st10{fill:#0071B5;}
	.st11{fill:#DF4F4F;}
	.st12{fill:#26262C;}
	.st13{fill:#CCCCCC;}
	.st14{fill:#A6120D;}
	.st15{fill:#B3B3B3;}
	.st16{fill:#DD1B16;}
	.st17{fill:#F2F2F2;}
</style>
<g>
	<path class="st4" d="M18,51.2L3.2,47.1L-0.1,10h36.3l-3.3,37L18,51.2L18,51.2z"/>
	<path class="st5" d="M30,44.7L32.8,13H18.1v35L30,44.7L30,44.7z"/>
	<path class="st2" d="M7.4,26.8l0.4,4.6H18v-4.6C18,26.8,7.4,26.8,7.4,26.8z M6.6,17.6L7,22.2h11v-4.6H6.6L6.6,17.6z M18,38.7
		L18,38.7l-5.1-1.4l-0.3-3.6H8l0.7,7.1l9.3,2.6l0,0C18,43.4,18,38.7,18,38.7z"/>
	<path d="M8.4,0h5.5v2.3h-3.2v2.3h3.2v2.3H8.4V0z M15,0h5.5v2h-3.2v0.4h3.2V7H15V4.9h3.2V4.5H15V0L15,0z M21.6,0h5.5v2h-3.2v0.4h3.2
		V7h-5.5V4.9h3.2V4.5h-3.2V0L21.6,0z"/>
	<path class="st3" d="M28.6,26.8l0.8-9.2H18v4.6h6.4L24,26.8h-6v4.6h5.6l-0.5,5.9L18,38.7v4.8l9.3-2.6l0.1-0.8l1.1-12L28.6,26.8
		L28.6,26.8z"/>
</g>
</svg>
