<?xml version="1.0" encoding="utf-8"?>
<!-- Generator: Adobe Illustrator 22.0.1, SVG Export Plug-In . SVG Version: 6.00 Build 0)  -->
<svg version="1.1" id="design" xmlns="http://www.w3.org/2000/svg" xmlns:xlink="http://www.w3.org/1999/xlink" x="0px" y="0px"
	 viewBox="0 0 36.2 51.3" style="enable-background:new 0 0 36.2 51.3;" xml:space="preserve">
<style type="text/css">
	.st0{fill:#E44D26;}
	.st1{fill:#F16529;}
	.st2{fill:#EBEBEB;}
	.st3{fill:#FFFFFF;}
	.st4{fill:#264DE4;}
	.st5{fill:#2965F1;}
	.st6{fill:#DAB92D;}
	.st7{fill:#FFD839;}
	.st8{fill:#53C1DE;}
	.st9{fill:#002A41;}
	.st10{fill:#0071B5;}
	.st11{fill:#DF4F4F;}
	.st12{fill:#26262C;}
	.st13{fill:#CCCCCC;}
	.st14{fill:#A6120D;}
	.st15{fill:#B3B3B3;}
	.st16{fill:#DD1B16;}
	.st17{fill:#F2F2F2;}
</style>
<g>
	<polygon class="st0" points="3.3,47.1 0,10 36.3,10 33,47.1 18.1,51.2 	"/>
	<polygon class="st1" points="18.2,48.1 30.1,44.7 33,13.1 18.2,13.1 	"/>
	<polygon class="st2" points="18.2,26.8 12.2,26.8 11.7,22.2 18.2,22.2 18.2,17.6 18.1,17.6 6.7,17.6 6.9,18.8 8,31.4 18.2,31.4 	
		"/>
	<polygon class="st2" points="18.2,38.7 18.1,38.7 13.1,37.3 12.8,33.6 10.3,33.6 8.2,33.6 8.8,40.8 18.1,43.4 18.2,43.4 	"/>
	<path d="M3.4,0h2.3v2.3h2.1V0h2.3v6.9H7.8V4.6H5.7v2.3H3.4V0L3.4,0z"/>
	<path d="M13.2,2.3h-2V0h6.3v2.3h-2v4.6h-2.3V2.3L13.2,2.3z"/>
	<path d="M18.5,0h2.4l1.5,2.4L23.9,0h2.4v6.9H24V3.5l-1.5,2.4h-0.1l-1.6-2.4v3.4h-2.2L18.5,0L18.5,0z"/>
	<path d="M27.4,0h2.3v4.6H33v2.3h-5.6V0z"/>
	<polygon class="st3" points="18.1,26.8 18.1,31.4 23.7,31.4 23.2,37.3 18.1,38.7 18.1,43.4 27.4,40.8 27.5,40.1 28.6,28.1 
		28.7,26.8 27.5,26.8 	"/>
	<polygon class="st3" points="18.1,17.6 18.1,20.5 18.1,22.1 18.1,22.2 29.1,22.2 29.1,22.2 29.1,22.2 29.2,21.2 29.4,18.8 
		29.5,17.6 	"/>
</g>
</svg>
