<?xml version="1.0" encoding="utf-8"?>
<!-- Generator: Adobe Illustrator 22.0.1, SVG Export Plug-In . SVG Version: 6.00 Build 0)  -->
<svg version="1.1" id="design" xmlns="http://www.w3.org/2000/svg" xmlns:xlink="http://www.w3.org/1999/xlink" x="0px" y="0px"
	 viewBox="0 0 36.7 51.3" style="enable-background:new 0 0 36.7 51.3;" xml:space="preserve">
<style type="text/css">
	.st0{fill:#E44D26;}
	.st1{fill:#F16529;}
	.st2{fill:#EBEBEB;}
	.st3{fill:#FFFFFF;}
	.st4{fill:#264DE4;}
	.st5{fill:#2965F1;}
	.st6{fill:#DAB92D;}
	.st7{fill:#FFD839;}
	.st8{fill:#53C1DE;}
	.st9{fill:#002A41;}
	.st10{fill:#0071B5;}
	.st11{fill:#DF4F4F;}
	.st12{fill:#26262C;}
	.st13{fill:#CCCCCC;}
	.st14{fill:#A6120D;}
	.st15{fill:#B3B3B3;}
	.st16{fill:#DD1B16;}
	.st17{fill:#F2F2F2;}
</style>
<g>
	<polygon class="st6" points="0.2,9.8 36.6,9.8 33.4,46.9 18.4,51.2 3.3,46.9 	"/>
	<polygon class="st7" points="18.4,12.8 18.4,48.1 30.5,44.5 33.2,12.8 	"/>
	<polygon class="st3" points="17.2,17.2 17.2,43.2 8.8,40.6 8.2,33.4 11.8,33.4 12.2,36.9 13.5,37.3 12.8,17.2 	"/>
	<polygon class="st3" points="19.2,17.2 19.2,31 23.7,31 23.4,37 19.2,38.2 19.2,43.2 27.5,40.7 28.8,26.5 23.9,26.5 23.9,21.9 
		29.2,21.9 29.8,17.2 	"/>
	<polygon points="15.4,0 15.4,4.4 14.5,4.4 14.5,4 12.4,4 12.4,6.3 17.5,6.3 17.5,0 	"/>
	<polygon points="18.6,0 24.4,0 24.4,1.6 21.6,1.6 24.5,4.4 24.5,6.3 18.6,6.3 18.6,4.6 21.4,4.6 18.5,1.8 	"/>
</g>
</svg>
