<?xml version="1.0" encoding="utf-8"?>
<!-- Generator: Adobe Illustrator 22.0.1, SVG Export Plug-In . SVG Version: 6.00 Build 0)  -->
<svg version="1.1" id="design" xmlns="http://www.w3.org/2000/svg" xmlns:xlink="http://www.w3.org/1999/xlink" x="0px" y="0px"
	 viewBox="0 0 98.6 51.3" style="enable-background:new 0 0 98.6 51.3;" xml:space="preserve">
<style type="text/css">
	.st0{fill:#0089D6;}
	.st1{fill:url(#SVGID_1_);}
	.st2{fill:url(#SVGID_2_);}
	.st3{fill:url(#SVGID_3_);}
	.st4{fill:#231F1F;}
	.st5{fill-rule:evenodd;clip-rule:evenodd;fill:#00678F;}
	.st6{fill-rule:evenodd;clip-rule:evenodd;fill:#E38D1A;}
	.st7{fill:#ED1C24;}
	.st8{fill:#336791;}
	.st9{fill:#FFFFFF;}
</style>
<g>
	<path class="st5" d="M0,46.8h3.3V33.9l5.1,11.2c0.6,1.4,1.4,1.9,3,1.9c1.6,0,2.4-0.5,3-1.9l5.1-11.2v12.9h3.3V33.9
		c0-1.3-0.5-1.9-1.6-2.2c-2.5-0.8-4.1-0.1-4.9,1.6l-5,11.1L6.4,33.3c-0.7-1.7-2.4-2.3-4.9-1.6C0.5,32,0,32.6,0,33.9V46.8L0,46.8z"/>
	<path class="st5" d="M25.4,36.3h3.3v7.1c0,0.4,0.1,1.3,1.9,1.3c0.9,0,7.1,0,7.1,0v-8.5h3.3c0,0,0,11.5,0,11.6
		c0,2.9-3.5,3.5-5.2,3.5H25.4v-2.2c0,0,10.3,0,10.3,0c2.1-0.2,1.9-1.3,1.9-1.6v-0.9h-6.9c-3.2,0-5.3-1.5-5.3-3.1
		C25.4,43.4,25.4,36.3,25.4,36.3L25.4,36.3z"/>
	<path class="st5" d="M95.7,28.1c-2-0.1-3.6,0.2-4.9,0.7c-0.4,0.2-1,0.2-1,0.6c0.2,0.2,0.2,0.5,0.4,0.8c0.3,0.5,0.8,1.2,1.3,1.5
		c0.5,0.4,1.1,0.8,1.6,1.2c1,0.6,2.1,1,3,1.6c0.6,0.4,1.1,0.8,1.7,1.2c0.3,0.2,0.5,0.5,0.8,0.7c0,0,0-0.1,0-0.1
		c-0.2-0.2-0.2-0.6-0.4-0.8c-0.3-0.3-0.5-0.5-0.8-0.7c-0.7-1-1.6-1.8-2.6-2.5c-0.8-0.6-2.6-1.3-2.9-2.2c0,0,0,0-0.1,0
		c0.6-0.1,1.2-0.3,1.7-0.4c0.9-0.2,1.6-0.2,2.5-0.4c0.4-0.1,0.8-0.2,1.2-0.4c0-0.1,0-0.2,0-0.2c-0.5-0.5-0.8-1.1-1.3-1.5
		c-1.3-1.1-2.7-2.2-4.1-3.1c-0.8-0.5-1.8-0.8-2.6-1.3c-0.3-0.2-0.8-0.2-1-0.5c-0.5-0.6-0.7-1.3-1-1.9c-0.7-1.4-1.4-2.9-2.1-4.4
		c-0.5-1-0.7-2-1.3-2.9c-2.6-4.3-5.4-6.8-9.7-9.4c-0.9-0.5-2-0.8-3.2-1c-0.6,0-1.3-0.1-1.9-0.1c-0.4-0.2-0.8-0.7-1.2-0.9
		C66.7,0.8,63-1.2,62,1.4c-0.7,1.6,1,3.2,1.6,4.1c0.4,0.6,1,1.2,1.3,1.9C65,7.8,65,8.2,65.2,8.7C65.6,9.8,66,11,66.5,12
		c0.3,0.5,0.6,1.1,0.9,1.6c0.2,0.3,0.6,0.4,0.6,0.9c-0.4,0.5-0.4,1.3-0.6,1.9c-0.9,2.8-0.6,6.3,0.7,8.4c0.4,0.6,1.4,2,2.6,1.5
		c1.1-0.5,0.9-1.9,1.2-3.1c0.1-0.3,0-0.5,0.2-0.7c0,0,0,0.1,0,0.1c0.4,0.7,0.7,1.4,1,2.1c0.8,1.2,2.1,2.5,3.3,3.4
		c0.6,0.5,1.1,1.2,1.8,1.5c0,0,0-0.1,0-0.1c0,0,0,0-0.1,0c-0.2-0.2-0.4-0.3-0.6-0.5c-0.5-0.5-1-1-1.3-1.5c-1.1-1.4-2-3-2.8-4.6
		c-0.4-0.8-0.8-1.6-1.1-2.4c-0.2-0.3-0.2-0.8-0.4-0.9c-0.4,0.6-0.9,1-1.2,1.7c-0.5,1.1-0.5,2.4-0.7,3.8c-0.1,0-0.1,0-0.1,0.1
		c-0.8-0.2-1.1-1-1.4-1.7c-0.8-1.8-0.9-4.6-0.2-6.7c0.2-0.5,0.9-2.2,0.6-2.7c-0.2-0.5-0.7-0.8-0.9-1.1c-0.3-0.5-0.7-1.1-0.9-1.6
		c-0.6-1.4-0.9-3-1.6-4.4c-0.3-0.7-0.8-1.3-1.3-1.9c-0.5-0.7-1-1.2-1.4-2c-0.1-0.3-0.3-0.7-0.1-1c0.1-0.2,0.2-0.3,0.4-0.3
		c0.3-0.3,1.3,0.1,1.6,0.2c0.9,0.4,1.7,0.7,2.5,1.3c0.4,0.3,0.7,0.7,1.2,0.9c0.2,0,0.4,0,0.5,0c0.8,0.2,1.7,0.1,2.5,0.3
		c1.3,0.4,2.5,1.1,3.6,1.7c3.3,2.1,6,5,7.8,8.6c0.3,0.6,0.4,1.1,0.7,1.7c0.5,1.2,1.2,2.5,1.7,3.7c0.5,1.2,1,2.4,1.8,3.4
		c0.4,0.5,1.9,0.8,2.6,1.1c0.5,0.2,1.3,0.4,1.7,0.7c0.9,0.5,1.7,1.1,2.5,1.7C94.4,26.9,95.6,27.6,95.7,28.1L95.7,28.1z"/>
	<path class="st5" d="M70.2,6.3c-0.4,0-0.7,0.1-1,0.1c0,0,0,0,0,0.1c0,0,0,0,0.1,0c0.2,0.4,0.6,0.7,0.8,1c0.2,0.4,0.4,0.8,0.6,1.2
		c0,0,0-0.1,0-0.1C71,8.4,71.1,8,71.1,7.4C71,7.2,71,7.1,70.8,6.9C70.7,6.6,70.4,6.5,70.2,6.3L70.2,6.3z"/>
	<path class="st6" d="M43.4,46.8h9.4c1.1,0,2.2-0.2,3-0.6c1.4-0.7,2.1-1.5,2.1-2.7v-2.4c0-0.9-0.8-1.8-2.3-2.4
		c-0.8-0.3-1.8-0.5-2.8-0.5h-4c-1.3,0-2-0.4-2.1-1.3c0-0.1,0-0.2,0-0.3v-1.5c0-0.1,0-0.2,0-0.3c0.2-0.7,0.5-0.9,1.7-1
		c0.1,0,0.2,0,0.3,0h9.3v-2.2h-9.2c-1.3,0-2,0.1-2.7,0.3c-1.9,0.6-2.8,1.6-2.8,3.2v1.9c0,1.5,1.7,2.7,4.5,3c0.3,0,0.6,0,1,0h3.4
		c0.1,0,0.3,0,0.4,0c1,0.1,1.5,0.3,1.8,0.7c0.2,0.2,0.3,0.4,0.3,0.6v1.9c0,0.2-0.2,0.5-0.5,0.8c-0.3,0.3-0.8,0.4-1.4,0.5
		c-0.1,0-0.2,0-0.3,0h-9V46.8L43.4,46.8z"/>
	<path class="st6" d="M78.3,43c0,2.2,1.7,3.5,5,3.7c0.3,0,0.6,0.1,1,0.1h8.5v-2.2h-8.6c-1.9,0-2.6-0.5-2.6-1.6V31.7h-3.3V43L78.3,43
		z"/>
	<path class="st6" d="M60,43.1v-7.8c0-2,1.4-3.2,4.1-3.6c0.3,0,0.6,0,0.9,0h6.2c0.3,0,0.6,0,0.9,0c2.7,0.4,4.1,1.6,4.1,3.6v7.8
		c0,1.6-0.6,2.5-1.9,3l3.2,2.9h-3.8l-2.6-2.4l-2.6,0.2H65c-0.6,0-1.2-0.1-1.9-0.3C61.1,46,60,44.9,60,43.1L60,43.1z M63.6,42.9
		c0,0.1,0.1,0.2,0.1,0.3c0.2,0.9,1,1.4,2.3,1.4h3l-2.7-2.5H70l2.4,2.2c0.5-0.3,0.7-0.6,0.8-1.1c0-0.1,0-0.2,0-0.3v-7.4
		c0-0.1,0-0.2,0-0.3c-0.2-0.9-1-1.3-2.3-1.3H66c-1.5,0-2.4,0.6-2.4,1.6V42.9L63.6,42.9z"/>
	<path class="st6" d="M94.3,46.8h0.5V45h0.6v-0.4h-1.8V45h0.7V46.8L94.3,46.8z M97.9,46.8h0.5v-2.2h-0.7l-0.6,1.5l-0.6-1.5h-0.7v2.2
		h0.4v-1.7h0l0.6,1.7h0.3l0.6-1.7l0,0V46.8L97.9,46.8z"/>
</g>
</svg>
