<svg xmlns="http://www.w3.org/2000/svg" viewBox="0 0 76.42 62"><defs><style>.cls-1,.cls-3{fill:#231f20;}.cls-2{fill:#326690;}.cls-3{stroke:#231f20;stroke-width:4.11px;}.cls-4,.cls-5,.cls-6{fill:none;stroke-width:1.37px;}.cls-4,.cls-5,.cls-6,.cls-7,.cls-8{stroke:#fff;}.cls-4,.cls-5{stroke-linecap:round;}.cls-4,.cls-6{stroke-linejoin:round;}.cls-5{stroke-linejoin:bevel;}.cls-7,.cls-8{fill:#fff;}.cls-7{stroke-width:0.46px;}.cls-8{stroke-width:0.23px;}</style></defs><title>postgresql-vertical-logo</title><g id="Layer_2" data-name="Layer 2"><g id="Layer_1-2" data-name="Layer 1"><path class="cls-1" d="M4.78,53.6H1.07V49.1H5q2.15,0,2.15,2.29T4.78,53.6M7.44,49a2.76,2.76,0,0,0-2.13-.83L0,48.25V59H1.07V54.44H5a3.22,3.22,0,0,0,2.34-.83,3,3,0,0,0,.85-2.29A3.25,3.25,0,0,0,7.44,49Zm6.93,7.72a2.28,2.28,0,0,1-.51.92,2.7,2.7,0,0,1-2.19.86,2.55,2.55,0,0,1-2-.82A3.26,3.26,0,0,1,8.9,55.5a4,4,0,0,1,.19-1.28,2.56,2.56,0,0,1,.54-.94,2.6,2.6,0,0,1,2-.81q2.88,0,2.88,3a4.55,4.55,0,0,1-.16,1.27m.19-4a3.7,3.7,0,0,0-2.9-1.08,3.57,3.57,0,0,0-2.8,1.1A3.88,3.88,0,0,0,8,55.51a3.92,3.92,0,0,0,.92,2.7,3,3,0,0,0,1.19.81,4.59,4.59,0,0,0,1.6.25,3.78,3.78,0,0,0,2.9-1.06,4.51,4.51,0,0,0,0-5.4Zm8.07,4.29q0,2.18-3.23,2.18a7.71,7.71,0,0,1-1.66-.15,2.57,2.57,0,0,1-1.1-.5,1.85,1.85,0,0,1-.52-.69,3.39,3.39,0,0,1-.25-1.08h1a1.5,1.5,0,0,0,.52,1.26,3.11,3.11,0,0,0,2,.49q2.26,0,2.26-1.37a1.1,1.1,0,0,0-.76-1.1q-.15-.06-1.82-.3A9.79,9.79,0,0,1,17,55.36a1.56,1.56,0,0,1-.89-1.54,1.81,1.81,0,0,1,.8-1.62,3.45,3.45,0,0,1,1-.34,6.8,6.8,0,0,1,1.37-.12q3.11,0,3.11,2.35h-1c0-1.1-.73-1.66-2.19-1.66a3.25,3.25,0,0,0-1.66.34,1.12,1.12,0,0,0-.55,1,1,1,0,0,0,.74.94,12.67,12.67,0,0,0,2,.34,5.94,5.94,0,0,1,1.92.42,1.61,1.61,0,0,1,1,1.57Zm3.93,2-.41.07-.25,0a2.29,2.29,0,0,1-1.41-.34,1.44,1.44,0,0,1-.43-1.2V52.68H22.9V52h1.18V49.64H25V52h1.6v.73H25v4.78a.93.93,0,0,0,.24.73,1.33,1.33,0,0,0,.84.2.61.61,0,0,0,.19,0l.32-.09v.73Zm6.31-1.63A2.62,2.62,0,0,1,32,58a2.86,2.86,0,0,1-1.09.18,2.53,2.53,0,0,1-2.88-2.86,2.86,2.86,0,0,1,.73-2.08,2.74,2.74,0,0,1,2.06-.75,2.6,2.6,0,0,1,2,.77,2.89,2.89,0,0,1,.69,2,3,3,0,0,1-.71,2.14M34.51,52H33.6v1.22a6.67,6.67,0,0,0-.86-.94,3.52,3.52,0,0,0-2-.51,3.27,3.27,0,0,0-3.61,3.6,4.64,4.64,0,0,0,.23,1.5A3.1,3.1,0,0,0,28,57.95a3.57,3.57,0,0,0,2.66.95,3.19,3.19,0,0,0,2.93-1.36v1.26A2.6,2.6,0,0,1,33,60.66a2.75,2.75,0,0,1-2.06.66A3.18,3.18,0,0,1,29,60.86a2,2,0,0,1-.59-1.2h-.94a2.51,2.51,0,0,0,.83,1.72,4.39,4.39,0,0,0,2.65.61q3.58,0,3.58-3.21V52Zm4.94.71a4,4,0,0,0-.77-.08q-2.24,0-2.24,3V59h-.9V52h.91v1.26h0a2.2,2.2,0,0,1,.73-1.13,2.9,2.9,0,0,1,1.63-.39h.61v.94ZM40.3,55a3.43,3.43,0,0,1,.78-1.87A2.61,2.61,0,0,1,42,52.6a3.1,3.1,0,0,1,1.12-.19,2.63,2.63,0,0,1,2,.81A2.55,2.55,0,0,1,45.85,55H40.31m5.63-2.18A2.88,2.88,0,0,0,44.76,52a4.51,4.51,0,0,0-1.66-.28,3.42,3.42,0,0,0-3.73,3.7,3.85,3.85,0,0,0,.94,2.7,3.69,3.69,0,0,0,2.88,1.11,4.45,4.45,0,0,0,1.36-.2,3.47,3.47,0,0,0,1.1-.57,3.13,3.13,0,0,0,1-1.76h-1a2.37,2.37,0,0,1-2.54,1.85,2.74,2.74,0,0,1-2.2-.89,2.9,2.9,0,0,1-.66-2h6.51a4.18,4.18,0,0,0-.87-2.82Z"/><path class="cls-2" d="M56.46,56.14q0,3.15-4.21,3.15a5.27,5.27,0,0,1-3.68-1.08,3.52,3.52,0,0,1-1-2.7h1.13q0,2.94,3.5,2.94a3.9,3.9,0,0,0,2.43-.6,2.06,2.06,0,0,0,.64-1.66,1.62,1.62,0,0,0-.86-1.57A12.18,12.18,0,0,0,52.07,54a10.66,10.66,0,0,1-3.1-.88,2.4,2.4,0,0,1-1-2.2,2.6,2.6,0,0,1,.87-2.15A5.15,5.15,0,0,1,52,48q4.12,0,4.12,3.31H55q0-2.48-3.06-2.48a3.91,3.91,0,0,0-2.24.5,1.87,1.87,0,0,0-.67,1.54,1.56,1.56,0,0,0,.86,1.52,13.53,13.53,0,0,0,2.7.71,8.22,8.22,0,0,1,2.84.89,2.35,2.35,0,0,1,1,2.16Zm9.17,1.07a4.21,4.21,0,0,1-1.44.91,4.93,4.93,0,0,1-1.78.3,4.27,4.27,0,0,1-3.26-1.31,5.62,5.62,0,0,1,0-7,4.35,4.35,0,0,1,3.27-1.27,4.12,4.12,0,0,1,3.24,1.33,4.06,4.06,0,0,1,.92,1.51,6.06,6.06,0,0,1,.3,2,5,5,0,0,1-1.25,3.58m.6.71a4.55,4.55,0,0,0,1.3-1.82,6.69,6.69,0,0,0,.42-2.47,5.76,5.76,0,0,0-1.38-4,4.54,4.54,0,0,0-1.78-1.24A6.57,6.57,0,0,0,62.4,48a5.41,5.41,0,0,0-4.09,1.54,5.7,5.7,0,0,0-1.47,4.13,5.68,5.68,0,0,0,1.5,4.11,5.45,5.45,0,0,0,4.1,1.54,8.34,8.34,0,0,0,1.77-.17,3.85,3.85,0,0,0,1.28-.51L67.16,60l.7-.77-1.61-1.32ZM76.4,59H68.7V48.22l1.06,0v9.93h6.66V59Z"/><path class="cls-3" d="M43.86,32.75c.34-2.37.24-2.72,2.32-2.33h.53a14,14,0,0,0,4.93-.7c2.65-1,4.22-2.78,1.61-2.33-6,1-6.37-.67-6.37-.67,6.29-7.92,8.92-18,6.65-20.42C47.32-.38,36.62,2.8,36.42,2.88h-.06a24.93,24.93,0,0,0-4-.35,11.09,11.09,0,0,0-6.3,1.6S6.93-2.55,7.82,12.53C8,15.74,13.25,36.8,19.49,30.44,21.8,28.12,24,26.18,24,26.18a6.6,6.6,0,0,0,3.78.82l.11-.08a2.94,2.94,0,0,0,0,.91c-1.57,1.49-1.1,1.76-4.28,2.35s-1.34,1.58-.09,1.85c1.51.32,5,.78,7.38-2l-.09.32c.63.43.59,3.08.68,5a15.37,15.37,0,0,0,.69,4.7c.45,1,1,3.72,5.22,3,3.53-.64,6.23-1.56,6.48-10.15"/><path class="cls-2" d="M53.24,27.42c-6,1-6.37-.67-6.37-.67,6.29-7.92,8.92-18,6.65-20.42C47.33-.38,36.62,2.8,36.42,2.88h-.06a24.93,24.93,0,0,0-4-.35,11.09,11.09,0,0,0-6.3,1.6S6.93-2.55,7.82,12.53C8,15.74,13.24,36.8,19.49,30.44,21.8,28.12,24,26.18,24,26.18a6.6,6.6,0,0,0,3.78.82l.11-.08a3,3,0,0,0,0,.91c-1.57,1.49-1.1,1.76-4.28,2.35s-1.34,1.58-.09,1.85c1.51.32,5,.78,7.38-2l-.09.32c.63.43,1.07,2.78,1,4.92s-.12,3.6.37,4.75,1,3.72,5.22,3c3.53-.64,5.36-2.3,5.62-5.08.18-2,.59-1.68.62-3.44l.33-.83c.38-2.67.06-3.53,2.24-3.13h.53a14,14,0,0,0,4.93-.7c2.65-1,4.22-2.78,1.61-2.33Z"/><path class="cls-4" d="M31.14,29c-.16,5,0,10,.62,11.2s1.8,3.58,6,2.82c3.53-.64,4.82-1.88,5.37-4.63.4-2,1.2-7.62,1.3-8.77M26.07,4S6.92-2.61,7.82,12.48c.2,3.21,5.42,24.27,11.67,17.9,2.28-2.33,4.34-4.2,4.34-4.2M36.42,2.81C35.76,3,47.07-.69,53.49,6.27c2.27,2.46-.36,12.51-6.65,20.42"/><path class="cls-5" d="M46.83,26.69s.4,1.71,6.37.67c2.61-.46,1,1.28-1.61,2.33-2.17.85-7,1.07-7.13-.11-.21-3,2.56-2.12,2.37-2.89s-1.42-1.36-2.24-3S34.78,10.9,47.11,12.58c.45-.08-3.22-9.94-14.76-10.1s-11.16,12-11.16,12"/><path class="cls-6" d="M27.91,27.74c-1.61,1.52-1.14,1.79-4.35,2.35s-1.34,1.58-.09,1.85c1.51.32,5,.78,7.38-2,.72-.85,0-2.22-1-2.57a1.64,1.64,0,0,0-1.94.4Z"/><path class="cls-4" d="M27.8,27.71a6.31,6.31,0,0,1,.89-3.21c.82-1.87,2.71-3.74,1.2-9.68-1.13-4.42-8.7-.92-8.7-.32a25.44,25.44,0,0,1-.13,5.88c-.61,3.71,2.78,6.84,6.69,6.52"/><path class="cls-7" d="M26,14.41a1.28,1.28,0,0,0,1.06.82,1.18,1.18,0,0,0,1.19-.56c0-.2-.44-.43-1.06-.5S26,14.18,26,14.41Z"/><path class="cls-8" d="M44.89,14a1.28,1.28,0,0,1-1.06.82,1.18,1.18,0,0,1-1.21-.56c0-.21.44-.43,1.06-.5s1.15,0,1.19.24Z"/><path class="cls-4" d="M47.11,12.58c.1,1.61-.41,2.7-.47,4.41-.1,2.49,1.4,5.33-.85,8.18"/></g></g></svg>