<svg xmlns="http://www.w3.org/2000/svg" viewBox="0 0 190.88 239.22"><defs><style>.cls-1{fill:#00d8ff;}</style></defs><title>react-js-logo</title><g id="Layer_2" data-name="Layer 2"><g id="design"><circle class="cls-1" cx="95.44" cy="84.85" r="16.91"/><path class="cls-1" d="M95.44,124.41c-23.79,0-44.64-2.82-60.28-8.14C13.47,108.84,0,96.81,0,84.85,0,73.34,12.47,62.11,33.37,54.8c17-5.91,39-9.16,62.07-9.16,22.6,0,44.35,3.19,61.23,9,21.42,7.4,34.21,18.7,34.21,30.24,0,12-13.94,24-36.39,31.46C138.77,121.53,117.79,124.41,95.44,124.41Zm0-69.05c-21.67,0-43.13,3.14-58.87,8.62C18.13,70.43,9.72,79.33,9.72,84.85c0,6.18,9.82,15.79,28.58,22.21,14.64,5,34.4,7.62,57.14,7.62,21.34,0,41.23-2.7,56-7.6,20.42-6.75,29.71-16.25,29.71-22.23,0-5.54-8.65-14.48-27.65-21C137.62,58.36,117,55.36,95.44,55.36Z"/><path class="cls-1" d="M57.09,170a18.72,18.72,0,0,1-9.48-2.34c-10-5.75-13.5-22.18-9.36-43.93,3.36-17.62,11.55-38.34,23.06-58.35h0c11.35-19.65,25-36.89,38.41-48.56C116.82,1.91,133-3.5,143,2.25c10.36,6,13.84,24.09,9.1,47.23-3.35,16.27-11.35,35.88-22.52,55.22C117.66,125.32,104.8,142,92.38,152.85,79.68,164,67,170,57.09,170ZM69.74,70.21C58.91,89,50.92,109.18,47.8,125.51c-3.65,19.19-.14,30.92,4.66,33.68,5.36,3.1,18.6-.62,33.52-13.67,11.62-10.18,23.78-26,35.17-45.69,10.66-18.46,18.27-37,21.41-52.32,4.31-21,.72-33.86-4.44-36.85-4.79-2.76-16.86.27-32,13.45-12.62,11-25.54,27.35-36.37,46.09Z"/><path class="cls-1" d="M133.8,170c-9.39,0-21.21-5.6-33.45-16.14-13.55-11.66-27.4-29.09-39-49.08h0C50,85.15,41.88,64.73,38.46,47.25c-4.34-22.24-1-39,9-44.76,10.39-6,27.8,0,45.45,15.7,12.42,11,25.41,27.74,36.59,47.08,12,20.68,20,40.14,23.13,56.27,4.45,22.49.78,40.18-9.59,46.14A18.32,18.32,0,0,1,133.8,170Zm-64-70.1c10.9,18.8,24.36,35.78,36.93,46.59,14.78,12.74,26.72,15.56,31.52,12.77,5.35-3.08,8.75-16.38,4.9-35.83-3-15.09-10.57-33.52-22-53.28-10.66-18.47-23-34.33-34.63-44.68C71.15,11.82,57.72,7.83,52.37,10.91,47.57,13.69,44.16,25.67,48,45.39c3.22,16.44,11,35.8,21.77,54.51Z"/><path class="cls-1" d="M55,238.43,43.62,221.55c5.8-.53,10.81-4.75,10.81-12.13,0-7.65-5.54-12.66-12.92-12.66H24.9v41.66h5.27V221.81h8.17L48.9,238.43ZM41,217.59H30.17V201.77H41c5,0,8.17,3.16,8.17,7.91s-3.43,7.91-8.17,7.91Zm33.23,21.62q7.52,0,11.87-4.75l-2.37-3.16A13.18,13.18,0,0,1,74.47,235c-6.59,0-10.55-4.75-10.81-10.55H88.19v-1.32c0-9-5.27-16.09-14.5-16.09-8.7,0-14.77,7.12-14.77,15.82,0,10,6.33,16.35,15.29,16.35Zm9.49-17.67H63.93c.26-4.75,3.43-10,9.76-10A9.81,9.81,0,0,1,83.7,221.55Zm35.6,16.88V217.86c0-7.38-5.27-10.28-11.6-10.28a15.93,15.93,0,0,0-12.13,5l2.11,3.16a11.73,11.73,0,0,1,9.23-4.22c4.48,0,7.65,2.37,7.65,6.33v5.54c-2.37-2.9-5.8-4.22-10-4.22-5,0-10.55,3.16-10.55,10,0,6.59,5.54,10,10.55,10a13,13,0,0,0,10-4.22v3.43Zm-12.92-2.37c-4.48,0-7.38-2.64-7.38-6.59s3.16-6.59,7.38-6.59c3.43,0,6.59,1.32,8.17,3.69v5.8c-1.58,2.37-5,3.69-8.17,3.69Zm35.6,3.16a13.24,13.24,0,0,0,11.08-5.27l-3.16-2.9a9.27,9.27,0,0,1-7.65,4c-6.33,0-10.28-5-10.28-11.6s4-11.6,10.28-11.6a8.93,8.93,0,0,1,7.65,4l3.16-2.9A13.24,13.24,0,0,0,142,207.57c-9,0-15,6.86-15,15.82s6.06,15.82,15,15.82Zm25.31,0a7.69,7.69,0,0,0,5.54-1.85l-1.32-3.43a4,4,0,0,1-3.16,1.32c-2.11,0-3.16-1.58-3.16-4V212.58h6.07v-4.22h-6.07v-8.17h-4.75v8.17h-5v4.22h5v19.78c0,4.48,2.37,6.86,6.86,6.86Z"/></g></g></svg>